<?xml version="1.0" encoding="UTF-8" standalone="no"?>
<svg
   id="Layer_1"
   data-name="Layer 1"
   viewBox="0 0 8518.2764 999.98999"
   version="1.1"
   sodipodi:docname="SSI_PRIMARY_LOGO.svg"
   width="8518.2764"
   height="999.98999"
   xmlns:inkscape="http://www.inkscape.org/namespaces/inkscape"
   xmlns:sodipodi="http://sodipodi.sourceforge.net/DTD/sodipodi-0.dtd"
   xmlns="http://www.w3.org/2000/svg"
   xmlns:svg="http://www.w3.org/2000/svg">
  <sodipodi:namedview
     id="namedview36"
     pagecolor="#ffffff"
     bordercolor="#000000"
     borderopacity="0.25"
     inkscape:showpageshadow="2"
     inkscape:pageopacity="0.0"
     inkscape:pagecheckerboard="0"
     inkscape:deskcolor="#d1d1d1"
     showguides="true"
     inkscape:zoom="0.15004828"
     inkscape:cx="486.51006"
     inkscape:cy="1009.675"
     inkscape:window-width="1920"
     inkscape:window-height="991"
     inkscape:window-x="1911"
     inkscape:window-y="-9"
     inkscape:window-maximized="1"
     inkscape:current-layer="layer1" />
  <defs
     id="defs1">
    <style
       id="style1">&#10;      .cls-1, .cls-2 {&#10;        fill: #d2232a;&#10;      }&#10;&#10;      .cls-2 {&#10;        opacity: .5;&#10;      }&#10;    </style>
  </defs>
  <g
     inkscape:groupmode="layer"
     id="layer2"
     inkscape:label="SSI"
     sodipodi:insensitive="true"
     transform="translate(5164.2261,-37.94)">
    <path
       class="cls-2"
       d="m 878.82,177.86 c -11.76,11.83 -23.52,23.64 -35.3,35.45 -11.77,11.8 -23.54,23.6 -35.32,35.39 76.23,72.83 123.73,175.48 123.73,289.24 0,220.91 -179.09,400 -400,400 -113.45,0 -215.85,-47.24 -288.65,-123.11 -11.79,11.79 -23.59,23.57 -35.4,35.34 -11.81,11.77 -23.62,23.53 -35.44,35.27 90.91,94.03 218.37,152.49 359.49,152.49 276.14,0 500,-223.86 500,-500 0,-141.43 -58.72,-269.13 -153.11,-360.08 z"
       id="path1" />
    <path
       class="cls-1"
       d="m 531.85,87.94 c 0.03,-16.67 0.07,-33.33 0.13,-50 -0.01,0 -0.03,0 -0.04,0 -275.4,0 -498.78,222.66 -499.98,497.78 16.67,-0.04 33.33,-0.07 50,-0.09 16.67,-0.02 33.33,-0.03 50,-0.04 v 0 c 8.07,0 16.15,0 24.22,-0.01 8.55,0 17.1,0 25.65,0 1.16,-192.3 157.4,-347.84 349.98,-347.84 0,-5.53 0,-11.05 0,-16.58 0,-11.07 0,-22.14 0,-33.22 v 0 c 0,-16.67 0.02,-33.33 0.05,-50 z"
       id="path2" />
    <path
       class="cls-1"
       d="m 772.23,283.48 c -8.85,8.87 -17.7,17.73 -26.55,26.59 -2.94,2.94 -5.88,5.87 -8.82,8.81 -11.79,11.79 -23.6,23.57 -35.42,35.33 49.48,45.68 80.49,111.08 80.49,183.73 0,63.24 -23.5,120.99 -62.22,165.02 11.75,11.87 23.48,23.77 35.17,35.69 v 0 c 1.8,1.84 3.61,3.67 5.41,5.51 9.94,10.03 19.76,20.17 29.5,30.4 57.2,-62.3 92.14,-145.38 92.14,-236.62 0,-100.25 -42.15,-190.65 -109.7,-254.46 z"
       id="path3" />
    <path
       class="cls-1"
       d="m 622.52,800.7 c -3.26,-8.71 -6.51,-17.42 -9.76,-26.13 v 0 c -5.83,-15.62 -11.65,-31.25 -17.46,-46.88 -19.91,6.65 -41.22,10.26 -63.37,10.26 -110.46,0 -200,-89.54 -200,-200 0,-84.45 52.34,-156.66 126.34,-186 -5.65,-15.69 -11.29,-31.38 -16.91,-47.08 -5.62,-15.69 -11.21,-31.39 -16.8,-47.1 -112.65,43.19 -192.64,152.33 -192.64,280.17 0,165.69 134.31,300 300,300 34.48,0 67.58,-5.85 98.42,-16.56 -2.61,-6.89 -5.22,-13.79 -7.83,-20.68 z"
       id="path4" />
    <path
       class="cls-2"
       d="m 560.62,633.74 c -9.09,2.72 -18.71,4.2 -28.69,4.2 -55.23,0 -100,-44.77 -100,-100 0,-41.11 24.82,-76.41 60.28,-91.78 -5.68,-15.7 -11.32,-31.41 -16.97,-47.13 -54.74,22.36 -93.31,76.12 -93.31,138.9 0,82.84 67.16,150 150,150 16.04,0 31.49,-2.53 45.99,-7.2 -5.78,-15.66 -11.55,-31.33 -17.3,-47 z"
       id="path5" />
    <circle
       class="cls-1"
       cx="531.92999"
       cy="537.94"
       r="50"
       id="circle5" />
    <g
       id="g36">
      <path
         class="cls-1"
         d="m 1177.07,210.11 c -9.72,0 -17.42,2.16 -23.08,6.48 -5.66,4.32 -8.5,10.26 -8.5,17.82 0,7.56 3.55,13.55 10.67,18.49 7.11,4.95 17.05,9.86 29.83,14.72 9.72,3.42 18.04,7.34 24.98,11.74 6.93,4.41 12.64,10.4 17.15,17.96 4.5,7.56 6.75,17.1 6.75,28.62 0,10.44 -2.61,19.89 -7.83,28.35 -5.22,8.46 -12.78,15.21 -22.68,20.25 -9.9,5.04 -21.6,7.56 -35.1,7.56 -11.88,0 -23.58,-1.85 -35.1,-5.54 -11.52,-3.69 -21.78,-8.77 -30.78,-15.25 l 14.04,-24.57 c 6.66,5.04 14.53,9.23 23.62,12.56 9.09,3.33 17.5,5 25.25,5 9.54,0 17.91,-2.29 25.11,-6.89 7.2,-4.59 10.8,-11.65 10.8,-21.19 0,-7.56 -3.02,-13.86 -9.04,-18.9 -6.03,-5.04 -14.45,-9.63 -25.25,-13.77 -11.16,-4.14 -20.43,-8.24 -27.81,-12.29 -7.38,-4.05 -13.73,-9.72 -19.04,-17.01 -5.31,-7.29 -7.96,-16.42 -7.96,-27.41 0,-16.02 5.44,-28.93 16.33,-38.75 10.89,-9.81 25.25,-15.07 43.06,-15.79 12.96,0 24.34,1.49 34.16,4.46 9.81,2.97 18.94,7.16 27.4,12.55 l -11.88,24.03 c -16.92,-8.82 -31.95,-13.23 -45.09,-13.23 z"
         id="path6" />
      <path
         class="cls-1"
         d="m 1270.22,231.84 c 9,-15.39 21.19,-27.67 36.58,-36.86 15.39,-9.18 32.17,-13.77 50.35,-13.77 18.18,0 34.69,4.59 50.09,13.77 15.39,9.18 27.67,21.51 36.86,36.99 9.18,15.48 13.77,32.13 13.77,49.95 0,17.82 -4.55,34.92 -13.63,50.22 -9.09,15.3 -21.38,27.45 -36.86,36.45 -15.48,9 -32.22,13.5 -50.22,13.5 -18,0 -34.96,-4.46 -50.35,-13.37 -15.39,-8.91 -27.59,-21.01 -36.58,-36.31 -9,-15.3 -13.5,-32.13 -13.5,-50.49 0,-18.36 4.5,-34.7 13.5,-50.08 z m 28.08,85.18 c 6.12,10.62 14.44,19.08 24.97,25.38 10.53,6.3 22.09,9.45 34.7,9.45 12.61,0 23.76,-3.1 34.02,-9.31 10.26,-6.21 18.4,-14.67 24.44,-25.38 6.03,-10.71 9.04,-22.45 9.04,-35.24 0,-12.79 -3.06,-24.57 -9.18,-35.37 -6.12,-10.8 -14.4,-19.35 -24.84,-25.65 -10.44,-6.3 -21.87,-9.45 -34.29,-9.45 -12.42,0 -24.08,3.15 -34.42,9.45 -10.35,6.3 -18.54,14.85 -24.57,25.65 -6.03,10.8 -9.04,22.59 -9.04,35.37 0,12.78 3.06,24.48 9.18,35.1 z"
         id="path7" />
      <path
         class="cls-1"
         d="m 1611.77,183.38 v 30.24 h -87.75 v 55.35 h 76.41 v 29.97 h -76.41 v 81 h -31.59 V 183.38 Z"
         id="path8" />
      <path
         class="cls-1"
         d="m 1762.7,183.38 v 30.24 h -50.76 v 166.32 h -31.32 V 213.62 h -49.41 v -30.24 z"
         id="path9" />
      <path
         class="cls-1"
         d="m 1955.47,388.58 -46.44,-117.18 -52.11,117.72 -78.57,-204.66 h 36.72 l 45.9,131.22 32.67,-83.7 -18.9,-47.52 h 31.05 l 50.49,127.44 42.12,-127.44 h 33.75 z"
         id="path10" />
      <path
         class="cls-1"
         d="m 2137.19,333.77 h -71.55 l -18.9,46.17 h -31.05 l 86.94,-204.66 h 1.89 l 86.94,204.66 h -36.18 z m -10.53,-27 -24.57,-62.1 -25.38,62.1 z"
         id="path11" />
      <path
         class="cls-1"
         d="m 2325.1,379.94 -44.28,-68.31 h -31.59 v 68.31 h -31.59 V 183.38 h 55.35 c 21.96,0 39.56,5.58 52.79,16.74 13.23,11.16 19.85,26.64 19.85,46.44 0,12.06 -2.57,23.27 -7.7,33.62 -5.13,10.35 -13.19,18.32 -24.17,23.89 l 47.79,75.87 z m -75.87,-98.55 h 28.08 c 12.6,0 21.74,-3.46 27.41,-10.39 5.67,-6.93 8.5,-14.72 8.5,-23.36 0,-5.04 -1.08,-10.12 -3.24,-15.25 -2.16,-5.13 -5.85,-9.54 -11.07,-13.23 -5.22,-3.69 -12.06,-5.53 -20.52,-5.53 h -29.16 v 67.77 z"
         id="path12" />
      <path
         class="cls-1"
         d="m 2521.66,183.38 v 30.24 h -98.82 V 266 h 88.02 v 30.24 h -88.02 v 53.46 h 102.6 v 30.24 H 2391.25 V 183.38 Z"
         id="path13" />
      <path
         class="cls-1"
         d="m 1177.07,466.11 c -9.72,0 -17.42,2.16 -23.08,6.48 -5.67,4.32 -8.5,10.26 -8.5,17.82 0,7.56 3.55,13.55 10.67,18.5 7.11,4.95 17.05,9.85 29.83,14.71 9.72,3.42 18.04,7.34 24.98,11.75 6.93,4.41 12.64,10.39 17.15,17.96 4.5,7.56 6.75,17.1 6.75,28.62 0,10.44 -2.61,19.89 -7.83,28.35 -5.22,8.46 -12.78,15.21 -22.68,20.25 -9.9,5.04 -21.6,7.56 -35.1,7.56 -11.88,0 -23.58,-1.85 -35.1,-5.54 -11.52,-3.69 -21.78,-8.78 -30.78,-15.25 l 14.04,-24.57 c 6.66,5.04 14.53,9.23 23.62,12.56 9.09,3.33 17.5,4.99 25.25,4.99 9.54,0 17.91,-2.29 25.11,-6.88 7.2,-4.59 10.8,-11.65 10.8,-21.2 0,-7.56 -3.02,-13.86 -9.04,-18.9 -6.03,-5.04 -14.45,-9.63 -25.25,-13.77 -11.16,-4.14 -20.43,-8.23 -27.81,-12.29 -7.38,-4.05 -13.73,-9.72 -19.04,-17.01 -5.31,-7.29 -7.96,-16.42 -7.96,-27.41 0,-16.02 5.44,-28.93 16.33,-38.75 10.89,-9.81 25.25,-15.07 43.06,-15.79 12.96,0 24.34,1.49 34.16,4.46 9.81,2.97 18.94,7.16 27.4,12.56 l -11.88,24.03 c -16.92,-8.82 -31.95,-13.23 -45.09,-13.23 z"
         id="path14" />
      <path
         class="cls-1"
         d="m 1315.31,586.26 c 3.96,6.48 9.36,11.66 16.2,15.53 6.84,3.87 14.31,5.81 22.41,5.81 8.1,0 16.15,-1.89 23.08,-5.67 6.93,-3.78 12.37,-8.91 16.33,-15.39 3.96,-6.48 5.94,-13.59 5.94,-21.33 V 439.39 h 31.05 v 126.63 c 0,14.04 -3.38,26.51 -10.12,37.4 -6.75,10.89 -15.98,19.4 -27.67,25.52 -11.7,6.12 -24.57,9.18 -38.61,9.18 -14.04,0 -26.86,-3.06 -38.48,-9.18 -11.61,-6.12 -20.75,-14.62 -27.4,-25.52 -6.66,-10.89 -9.99,-23.36 -9.99,-37.4 V 439.39 h 31.32 v 125.82 c 0,7.56 1.98,14.58 5.94,21.06 z"
         id="path15" />
      <path
         class="cls-1"
         d="m 1544,466.11 c -9.72,0 -17.42,2.16 -23.08,6.48 -5.67,4.32 -8.5,10.26 -8.5,17.82 0,7.56 3.55,13.55 10.67,18.5 7.11,4.95 17.05,9.85 29.83,14.71 9.72,3.42 18.04,7.34 24.97,11.75 6.93,4.41 12.64,10.39 17.15,17.96 4.5,7.56 6.75,17.1 6.75,28.62 0,10.44 -2.61,19.89 -7.83,28.35 -5.22,8.46 -12.78,15.21 -22.68,20.25 -9.9,5.04 -21.6,7.56 -35.1,7.56 -11.88,0 -23.58,-1.85 -35.1,-5.54 -11.52,-3.69 -21.78,-8.78 -30.78,-15.25 l 14.04,-24.57 c 6.66,5.04 14.53,9.23 23.62,12.56 9.09,3.33 17.5,4.99 25.25,4.99 9.54,0 17.91,-2.29 25.11,-6.88 7.2,-4.59 10.8,-11.65 10.8,-21.2 0,-7.56 -3.02,-13.86 -9.04,-18.9 -6.03,-5.04 -14.45,-9.63 -25.25,-13.77 -11.16,-4.14 -20.43,-8.23 -27.81,-12.29 -7.38,-4.05 -13.73,-9.72 -19.03,-17.01 -5.31,-7.29 -7.97,-16.42 -7.97,-27.41 0,-16.02 5.44,-28.93 16.33,-38.75 10.89,-9.81 25.25,-15.07 43.07,-15.79 12.96,0 24.34,1.49 34.16,4.46 9.81,2.97 18.94,7.16 27.4,12.56 l -11.88,24.03 c -16.92,-8.82 -31.95,-13.23 -45.09,-13.23 z"
         id="path16" />
      <path
         class="cls-1"
         d="m 1764.59,439.38 v 30.24 h -50.76 v 166.32 h -31.32 V 469.62 h -49.41 v -30.24 z"
         id="path17" />
      <path
         class="cls-1"
         d="m 1894.73,589.77 h -71.55 l -18.9,46.17 h -31.05 l 86.94,-204.66 h 1.89 L 1949,635.94 h -36.18 z m -10.53,-27 -24.57,-62.1 -25.38,62.1 z"
         id="path18" />
      <path
         class="cls-1"
         d="m 2018.92,439.38 v 196.56 h -31.59 V 439.38 Z"
         id="path19" />
      <path
         class="cls-1"
         d="m 2251.39,439.38 v 203.58 h -0.81 l -141.75,-137.43 0.81,130.41 h -31.86 V 432.63 h 1.62 l 141.21,139.05 -0.54,-132.3 z"
         id="path20" />
      <path
         class="cls-1"
         d="m 2411.5,589.77 h -71.55 l -18.9,46.17 H 2290 l 86.94,-204.66 h 1.89 l 86.94,204.66 h -36.18 z m -10.53,-27 -24.57,-62.1 -25.38,62.1 z"
         id="path21" />
      <path
         class="cls-1"
         d="m 2623.04,551.97 c 6.21,7.92 9.32,17.1 9.32,27.54 0,19.08 -6.44,33.26 -19.3,42.53 -12.87,9.27 -28.75,13.91 -47.66,13.91 h -61.29 V 439.39 h 53.73 c 20.52,0 36.45,4.19 47.79,12.56 11.34,8.37 17.01,20.65 17.01,36.85 0,10.26 -2.21,19.13 -6.62,26.59 -4.41,7.47 -10.67,13.46 -18.76,17.96 10.98,4.5 19.57,10.71 25.78,18.63 z m -87.34,-28.89 h 27.27 c 9,0 15.79,-2.61 20.38,-7.83 4.59,-5.22 6.88,-11.79 6.88,-19.71 0,-8.64 -2.75,-15.12 -8.24,-19.44 -5.49,-4.32 -13.09,-6.48 -22.81,-6.48 h -23.49 v 53.46 z m 54.27,76.82 c 6.66,-4.59 9.99,-11.29 9.99,-20.12 0,-9.36 -3.64,-16.11 -10.93,-20.25 -7.29,-4.14 -16.33,-6.21 -27.13,-6.21 h -26.19 v 53.46 h 28.35 c 10.62,0 19.26,-2.29 25.92,-6.88 z"
         id="path22" />
      <path
         class="cls-1"
         d="m 2710.65,439.38 v 196.56 h -31.59 V 439.38 Z"
         id="path23" />
      <path
         class="cls-1"
         d="M 2801.1,439.38 V 605.7 h 96.93 v 30.24 H 2769.51 V 439.38 Z"
         id="path24" />
      <path
         class="cls-1"
         d="m 2976.06,439.38 v 196.56 h -31.59 V 439.38 Z"
         id="path25" />
      <path
         class="cls-1"
         d="m 3152.36,439.38 v 30.24 h -50.76 v 166.32 h -31.32 V 469.62 h -49.41 v -30.24 z"
         id="path26" />
      <path
         class="cls-1"
         d="m 3354.05,439.38 -73.71,132.84 v 63.72 h -31.32 V 572.22 L 3176.39,439.38 H 3215 l 50.76,96.93 49.68,-96.93 z"
         id="path27" />
      <path
         class="cls-1"
         d="M 1119.38,891.94 V 866.4 h 48.64 V 718.35 h -48.64 v -25.54 h 127.68 v 25.54 h -48.64 V 866.4 h 48.64 v 25.54 z"
         id="path28" />
      <path
         class="cls-1"
         d="m 1460.74,695.38 v 203.58 h -0.81 l -141.75,-137.43 0.81,130.41 h -31.86 V 688.63 h 1.62 l 141.21,139.05 -0.54,-132.3 z"
         id="path29" />
      <path
         class="cls-1"
         d="m 1560.37,722.11 c -9.72,0 -17.42,2.16 -23.08,6.48 -5.67,4.32 -8.5,10.26 -8.5,17.82 0,7.56 3.55,13.55 10.67,18.5 7.11,4.95 17.05,9.86 29.83,14.71 9.72,3.42 18.04,7.34 24.97,11.75 6.93,4.41 12.64,10.4 17.15,17.96 4.5,7.56 6.75,17.1 6.75,28.62 0,10.44 -2.61,19.89 -7.83,28.35 -5.22,8.46 -12.78,15.21 -22.68,20.25 -9.9,5.04 -21.6,7.56 -35.1,7.56 -11.88,0 -23.58,-1.85 -35.1,-5.54 -11.52,-3.69 -21.78,-8.78 -30.78,-15.25 l 14.04,-24.57 c 6.66,5.04 14.53,9.23 23.62,12.56 9.09,3.33 17.5,4.99 25.25,4.99 9.54,0 17.91,-2.29 25.11,-6.88 7.2,-4.59 10.8,-11.65 10.8,-21.2 0,-7.56 -3.02,-13.86 -9.04,-18.9 -6.03,-5.04 -14.45,-9.63 -25.25,-13.77 -11.16,-4.14 -20.43,-8.23 -27.81,-12.28 -7.38,-4.05 -13.73,-9.72 -19.03,-17.01 -5.31,-7.29 -7.97,-16.42 -7.97,-27.4 0,-16.02 5.44,-28.93 16.33,-38.75 10.89,-9.81 25.25,-15.07 43.07,-15.79 12.96,0 24.34,1.48 34.16,4.46 9.81,2.97 18.94,7.15 27.4,12.55 l -11.88,24.03 c -16.92,-8.82 -31.95,-13.23 -45.09,-13.23 z"
         id="path30" />
      <path
         class="cls-1"
         d="m 1763.41,695.38 v 30.24 h -50.76 v 166.32 h -31.32 V 725.62 h -49.41 v -30.24 z"
         id="path31" />
      <path
         class="cls-1"
         d="m 1822.27,695.38 v 196.56 h -31.59 V 695.38 Z"
         id="path32" />
      <path
         class="cls-1"
         d="m 1981.03,695.38 v 30.24 h -50.76 v 166.32 h -31.32 V 725.62 h -49.41 v -30.24 z"
         id="path33" />
      <path
         class="cls-1"
         d="m 2042.58,842.26 c 3.96,6.48 9.36,11.66 16.2,15.52 6.84,3.87 14.31,5.81 22.41,5.81 8.1,0 16.15,-1.89 23.08,-5.67 6.93,-3.78 12.37,-8.91 16.33,-15.39 3.96,-6.48 5.94,-13.59 5.94,-21.33 V 695.38 h 31.05 v 126.63 c 0,14.04 -3.38,26.51 -10.12,37.39 -6.75,10.89 -15.98,19.4 -27.67,25.52 -11.7,6.12 -24.57,9.18 -38.61,9.18 -14.04,0 -26.87,-3.06 -38.48,-9.18 -11.61,-6.12 -20.75,-14.62 -27.41,-25.52 -6.66,-10.89 -9.99,-23.35 -9.99,-37.39 V 695.38 h 31.32 V 821.2 c 0,7.56 1.98,14.58 5.94,21.06 z"
         id="path34" />
      <path
         class="cls-1"
         d="m 2313.12,695.38 v 30.24 h -50.76 v 166.32 h -31.32 V 725.62 h -49.41 v -30.24 z"
         id="path35" />
      <path
         class="cls-1"
         d="m 2470.8,695.38 v 30.24 h -98.82 V 778 H 2460 v 30.24 h -88.02 v 53.46 h 102.6 v 30.24 H 2340.39 V 695.38 Z"
         id="path36" />
    </g>
  </g>
  <g
     inkscape:groupmode="layer"
     id="layer1"
     inkscape:label="Carpentries"
     transform="translate(5164.2261,-37.94)">
    <g
       id="g37"
       transform="matrix(12.493958,0,0,12.493958,-36124.254,-8315.3671)"
       style="opacity:1">
      <path
         id="path2-8"
         style="fill:#071159;fill-rule:evenodd"
         d="m 2515.3973,712.7586 -0.609,-15.6219 13.481,-8.4941 13.6126,7.2951 0.692,16.0431 -13.481,8.4935 z" />
      <path
         id="path4-9"
         style="fill:#071159;fill-rule:evenodd"
         d="m 2488.6512,709.7311 -0.082,-22.4502 29.2906,-18.2808 14.0091,8.3629 c -10.1028,6.5645 -14.7455,9.3309 -24.9875,15.6991 l -0.1926,5.9751 z" />
      <path
         id="path6-7"
         style="fill:#071159;fill-rule:evenodd"
         d="M 2490.0432,741.0262 2478,721.9448 l 28.7863,-16.8447 1.1557,12.3346 10.7928,5.589 z" />
      <path
         id="path8-5"
         style="fill:#071159;fill-rule:evenodd"
         d="m 2505.1164,737.8833 19.919,10.3549 29.8294,-18.2487 -1.8935,-15.6419 c -10.3375,6.1835 -14.3477,8.7856 -24.6876,14.9664 l -5.3995,-2.5663 z" />
      <path
         id="path10-5"
         style="fill:#000000;fill-rule:evenodd"
         d="m 2592.7172,701.6098 h 4.5675 v -20.1043 h 7.6822 v -4.1523 c -7.0246,0 -12.9416,0 -19.9314,0 v 4.1523 h 7.6817 z m 40.0811,0 v -24.1871 h -4.5328 v 10.2079 h -11.9035 v -10.2079 h -4.5675 v 24.1871 h 4.5675 v -9.7579 h 11.9035 v 9.7579 z m 26.3786,-4.4984 h -13.5988 v -5.4671 h 13.1145 v -4.2561 h -13.1145 v -5.6056 h 13.5988 v -4.4294 h -18.132 c 0,8.0856 0,16.1944 0,24.2566 h 18.132 z" />
      <path
         id="path12-2"
         style="fill:#000000;fill-rule:evenodd"
         d="m 2603.9636,733.0685 c -1.5915,1.5914 -3.9795,2.4566 -6.0899,2.4566 -5.9865,0 -8.3046,-4.187 -8.3394,-8.2008 -0.035,-4.0485 2.4914,-8.4084 8.3394,-8.4084 2.1104,0 4.2561,0.7267 5.8479,2.2838 l 3.0448,-2.9414 c -2.4914,-2.4566 -5.6056,-3.7023 -8.8927,-3.7023 -8.7546,0 -12.8722,6.4361 -12.8378,12.7683 0.035,6.2975 3.8408,12.4916 12.8378,12.4916 3.4947,0 6.7127,-1.1418 9.2041,-3.5989 z" />
      <path
         id="path14-7"
         style="fill:#000000;fill-rule:evenodd"
         d="m 2631.8301,739.2622 h 4.9828 l -10.8655,-24.2566 h -4.9827 l -10.8651,24.2566 h 4.9481 l 2.0761,-4.5676 h 12.6645 z m -3.8756,-8.8237 h -8.9969 l 4.4985,-10.3345 z" />
      <path
         id="path16-6"
         style="fill:#000000;fill-rule:evenodd"
         d="m 2664.3676,738.9507 -7.336,-8.2698 c 4.6023,-0.9343 6.1251,-4.2909 6.1251,-7.6299 0,-4.2046 -3.0104,-8.0107 -8.7202,-8.0454 -3.8409,0.0347 -7.6818,0 -11.5227,0 v 24.2566 h 4.5676 v -8.097 h 4.3946 l 7.0589,8.097 h 5.4327 z m -9.9311,-19.689 c 2.8722,0 4.1527,1.9437 4.1527,3.8932 0,1.949 -1.2461,3.8927 -4.1527,3.8927 h -6.9551 v -7.7859 z" />
      <path
         id="path18-9"
         style="fill:#000000;fill-rule:evenodd"
         d="m 2674.8289,719.3655 h 6.8513 c 5.8132,0 5.8479,8.5817 0,8.5817 h -6.8513 z m 6.8513,-4.3599 c -3.8066,-0.0344 -7.6127,0 -11.4188,0 v 24.2566 h 4.5675 v -7.128 h 6.8513 c 11.8688,0 11.834,-17.1286 0,-17.1286 z" />
      <path
         id="path20-1"
         style="fill:#000000;fill-rule:evenodd"
         d="m 2715.7405,734.7637 h -13.5988 v -5.467 h 13.1145 v -4.2561 h -13.1145 v -5.6057 h 13.5988 v -4.4293 h -18.132 c 0,8.0855 0,16.1943 0,24.2566 h 18.132 z" />
      <path
         id="path22-8"
         style="fill:#000000;fill-rule:evenodd"
         d="m 2739.9391,730.0462 -11.8688,-15.0406 h -3.7028 v 24.2566 h 4.5676 v -16.3554 l 12.7339,16.3554 v 0 h 2.8376 v -24.2566 h -4.5675 z" />
      <path
         id="path24-0"
         style="fill:#000000;fill-rule:evenodd"
         d="m 2758.9816,739.2622 h 4.5675 v -20.1043 h 7.6822 v -4.1523 c -7.0246,0 -12.9416,0 -19.9315,0 v 4.1523 h 7.6818 z" />
      <path
         id="path26-5"
         style="fill:#000000;fill-rule:evenodd"
         d="m 2799.5127,738.9507 -7.336,-8.2698 c 4.6022,-0.9343 6.125,-4.2909 6.125,-7.6299 0,-4.2046 -3.0104,-8.0107 -8.7202,-8.0454 -3.8409,0.0347 -7.6818,0 -11.5226,0 v 24.2566 h 4.5675 v -8.097 h 4.3946 l 7.0589,8.097 h 5.4328 z m -9.9312,-19.689 c 2.8723,0 4.1527,1.9437 4.1527,3.8932 0,1.949 -1.2461,3.8927 -4.1527,3.8927 h -6.9551 v -7.7859 z" />
      <path
         id="path28-2"
         style="fill:#000000;fill-rule:evenodd"
         d="m 2809.9739,739.2622 v -24.2566 h -4.5332 v 24.2566 z" />
      <path
         id="path30-6"
         style="fill:#000000;fill-rule:evenodd"
         d="m 2836.3525,734.7637 h -13.5988 v -5.467 h 13.1145 v -4.2561 h -13.1145 v -5.6057 h 13.5988 v -4.4293 h -18.132 c 0,8.0855 0,16.1943 0,24.2566 h 18.132 z" />
      <path
         id="path32-7"
         style="fill:#000000;fill-rule:evenodd"
         d="m 2863.2153,719.0197 c -1.8338,-3.737 -5.7442,-4.8099 -9.516,-4.8099 -4.4637,0.0348 -9.377,2.0762 -9.377,7.0589 0,5.4328 4.5676,6.7475 9.5156,7.336 3.218,0.3458 5.6056,1.2801 5.6056,3.5638 0,2.63 -2.699,3.6333 -5.5709,3.6333 -2.9413,0 -5.7441,-1.1762 -6.8169,-3.8409 l -3.8062,1.9724 c 1.7995,4.4293 5.6056,5.9517 10.5536,5.9517 5.398,0 10.1736,-2.3185 10.1736,-7.7165 0,-5.7785 -4.7061,-7.0932 -9.7583,-7.7161 -2.9066,-0.3461 -5.398,-0.9342 -5.398,-3.0451 0,-1.7995 1.6266,-3.218 5.0175,-3.218 2.6299,0 4.9137,1.3147 5.7441,2.699 z" />
      <path
         id="path34-2"
         style="fill:#000000;fill-rule:evenodd"
         d="m 2568.1956,669 v 79.2385 h 2.5819 V 669 Z" />
    </g>
  </g>
</svg>
